<?xml version="1.0" standalone="no"?>
<!DOCTYPE svg PUBLIC "-//W3C//DTD SVG 20010904//EN"
 "http://www.w3.org/TR/2001/REC-SVG-20010904/DTD/svg10.dtd">
<svg version="1.0" xmlns="http://www.w3.org/2000/svg"
 width="304.000000pt" height="304.000000pt" viewBox="0 0 304.000000 304.000000"
 preserveAspectRatio="xMidYMid meet">
<metadata>
Created by potrace 1.14, written by Peter Selinger 2001-2017
</metadata>
<g transform="translate(0.000000,304.000000) scale(0.100000,-0.100000)"
fill="#000000" stroke="none">
<path d="M1380 3033 c-119 -14 -284 -64 -369 -110 -60 -34 -158 -100 -166
-113 -13 -21 -43 -9 -86 34 -67 66 -77 66 -140 -1 -95 -100 -158 -206 -202
-344 -43 -129 -60 -301 -42 -419 13 -91 17 -107 46 -195 77 -231 256 -467 557
-735 111 -99 116 -102 144 -91 30 12 138 124 171 177 92 150 69 332 -61 475
-137 152 -187 287 -159 429 5 25 13 49 18 55 5 5 9 15 9 22 0 25 63 108 114
151 89 75 208 104 331 81 58 -11 157 -57 199 -94 29 -25 39 -29 63 -26 7 1 93
83 192 183 125 124 181 188 181 203 0 23 -29 52 -128 128 -109 81 -256 146
-403 176 -55 11 -219 20 -269 14z"/>
<path d="M1375 2272 c-60 -25 -90 -49 -120 -92 -42 -60 -55 -131 -39 -209 8
-36 17 -67 22 -70 4 -3 18 -20 30 -38 25 -36 91 -77 142 -88 117 -27 234 29
289 138 51 100 33 218 -45 301 -65 69 -191 95 -279 58z"/>
<path d="M1925 1978 c-11 -6 -52 -43 -91 -84 -104 -107 -135 -183 -130 -313 4
-97 33 -163 112 -254 139 -159 188 -293 159 -430 -47 -222 -267 -361 -485
-306 -81 21 -121 40 -177 85 -23 19 -50 34 -60 34 -26 0 -383 -359 -383 -386
0 -40 145 -157 275 -221 144 -72 291 -104 460 -99 66 2 134 7 150 10 146 32
258 80 381 162 107 71 104 71 169 5 21 -23 47 -41 58 -41 21 0 78 57 140 139
70 94 135 245 162 376 12 57 15 269 5 324 -18 97 -19 104 -40 170 -77 236
-251 463 -580 755 -92 82 -100 87 -125 74z"/>
<path d="M1533 1229 c-166 -30 -255 -208 -180 -361 52 -106 162 -159 282 -134
116 23 195 123 195 246 0 161 -139 277 -297 249z"/>
</g>
</svg>
