<svg width="24" height="24" viewBox="0 0 24 24" fill="none" xmlns="http://www.w3.org/2000/svg">
<path d="M9.28078 9.28032C11.015 9.28032 12.4209 7.87442 12.4209 6.14016C12.4209 4.4059 11.015 3 9.28078 3C7.54652 3 6.14062 4.4059 6.14062 6.14016C6.14062 7.87442 7.54652 9.28032 9.28078 9.28032Z" stroke="#020305" stroke-width="1.39563" stroke-linecap="round" stroke-linejoin="round"/>
<path d="M8.5825 19.7473H3V17.6538C3.01111 16.5901 3.29165 15.5465 3.81543 14.6206C4.3392 13.6946 5.08911 12.9165 5.99512 12.359C6.90112 11.8015 7.93366 11.4826 8.99628 11.4323C10.0589 11.382 11.1169 11.6019 12.0716 12.0713" stroke="#020305" stroke-width="1.39563" stroke-linecap="round" stroke-linejoin="round"/>
<path d="M16.9561 12.7693V21.143" stroke="#020305" stroke-width="1.39563" stroke-linecap="round" stroke-linejoin="round"/>
<path d="M12.7695 16.9565H21.1433" stroke="#020305" stroke-width="1.39563" stroke-linecap="round" stroke-linejoin="round"/>
</svg>
