<svg width="24" height="26" viewBox="0 0 24 26" fill="none" xmlns="http://www.w3.org/2000/svg">
<path d="M23.1198 12.6187L12.0861 23.7451C11.658 24.1813 11.1473 24.5278 10.5837 24.7643C10.0201 25.0009 9.41507 25.1227 8.80388 25.1227C8.19268 25.1227 7.58762 25.0009 7.02405 24.7643C6.46048 24.5278 5.94971 24.1813 5.52161 23.7451L2.22079 20.3886C1.3567 19.511 0.872375 18.3287 0.872375 17.0971C0.872375 15.8654 1.3567 14.6832 2.22079 13.8055L13.9776 2.0116C14.3224 1.66398 14.7326 1.38807 15.1845 1.19978C15.6365 1.01149 16.1213 0.914551 16.6109 0.914551C17.1005 0.914551 17.5852 1.01149 18.0372 1.19978C18.4891 1.38807 18.8993 1.66398 19.2441 2.0116L20.5607 3.32822C20.9083 3.673 21.1842 4.08319 21.3725 4.53514C21.5608 4.98709 21.6578 5.47185 21.6578 5.96145C21.6578 6.45106 21.5608 6.93581 21.3725 7.38776C21.1842 7.83971 20.9083 8.24991 20.5607 8.59469L10.139 19.0534C9.96665 19.2273 9.76155 19.3652 9.53558 19.4594C9.3096 19.5535 9.06722 19.602 8.82242 19.602C8.57762 19.602 8.33524 19.5535 8.10927 19.4594C7.88329 19.3652 7.67819 19.2273 7.5058 19.0534L6.85677 18.3859C6.68296 18.2135 6.545 18.0084 6.45086 17.7824C6.35671 17.5564 6.30824 17.3141 6.30824 17.0693C6.30824 16.8244 6.35671 16.5821 6.45086 16.3561C6.545 16.1301 6.68296 15.925 6.85677 15.7526L13.8478 8.81721" stroke="#020305" stroke-width="1.4" stroke-linecap="round" stroke-linejoin="round"/>
</svg>
