<svg width="20" height="20" viewBox="0 0 20 20" fill="none" xmlns="http://www.w3.org/2000/svg">
<path d="M6.96089 7.47092C8.67241 7.47092 10.0599 6.08345 10.0599 4.37193C10.0599 2.66041 8.67241 1.27295 6.96089 1.27295C5.24937 1.27295 3.86191 2.66041 3.86191 4.37193C3.86191 6.08345 5.24937 7.47092 6.96089 7.47092Z" stroke="#020305" stroke-width="1.4" stroke-linecap="round" stroke-linejoin="round"/>
<path d="M14.1914 19.1783C16.6636 19.1783 18.6677 17.1742 18.6677 14.702C18.6677 12.2298 16.6636 10.2257 14.1914 10.2257C11.7192 10.2257 9.71509 12.2298 9.71509 14.702C9.71509 17.1742 11.7192 19.1783 14.1914 19.1783Z" stroke="#020305" stroke-width="1.4" stroke-linecap="round" stroke-linejoin="round"/>
<path d="M11.0238 17.8698L17.3595 11.5341" stroke="#020305" stroke-width="1.4" stroke-linecap="round" stroke-linejoin="round"/>
<path d="M8.33802 9.68828C7.4298 9.47861 6.48594 9.47694 5.57698 9.68342C4.66803 9.8899 3.81751 10.2992 3.08901 10.8807C2.36051 11.4621 1.77288 12.2008 1.37005 13.0413C0.967213 13.8819 0.7596 14.8026 0.76273 15.7347V17.8007H6.27203" stroke="#020305" stroke-width="1.4" stroke-linecap="round" stroke-linejoin="round"/>
</svg>
