<svg width="20" height="21" viewBox="0 0 20 21" fill="none" xmlns="http://www.w3.org/2000/svg">
<path d="M2.16016 17.2422H14.847" stroke="#2F4786" stroke-width="1.4" stroke-linecap="round" stroke-linejoin="round"/>
<path d="M9.08113 13.2057L5.62109 13.8285L6.19777 10.3223L13.9598 2.58335C14.067 2.47524 14.1946 2.38944 14.3351 2.33089C14.4757 2.27233 14.6264 2.24219 14.7787 2.24219C14.9309 2.24219 15.0817 2.27233 15.2222 2.33089C15.3628 2.38944 15.4903 2.47524 15.5975 2.58335L16.8201 3.80589C16.9282 3.91311 17.014 4.04067 17.0725 4.18122C17.1311 4.32176 17.1612 4.47251 17.1612 4.62477C17.1612 4.77702 17.1311 4.92777 17.0725 5.06832C17.014 5.20886 16.9282 5.33643 16.8201 5.44364L9.08113 13.2057Z" stroke="#2F4786" stroke-width="1.4" stroke-linecap="round" stroke-linejoin="round"/>
</svg>
