<svg width="21" height="21" viewBox="0 0 21 21" fill="none" xmlns="http://www.w3.org/2000/svg">
<path d="M1.59277 19.3252H16.8169" stroke="#020305" stroke-width="1.4" stroke-linecap="round" stroke-linejoin="round"/>
<path d="M9.89655 14.4814L5.74451 15.2287L6.43651 11.0213L15.7509 1.73458C15.8796 1.60486 16.0327 1.5019 16.2013 1.43164C16.37 1.36137 16.5509 1.3252 16.7336 1.3252C16.9163 1.3252 17.0972 1.36137 17.2658 1.43164C17.4345 1.5019 17.5876 1.60486 17.7162 1.73458L19.1833 3.20164C19.313 3.3303 19.416 3.48338 19.4862 3.65203C19.5565 3.82069 19.5927 4.00159 19.5927 4.18429C19.5927 4.367 19.5565 4.5479 19.4862 4.71655C19.416 4.88521 19.313 5.03828 19.1833 5.16694L9.89655 14.4814Z" stroke="#020305" stroke-width="1.4" stroke-linecap="round" stroke-linejoin="round"/>
</svg>
