<svg width="18" height="18" viewBox="0 0 18 18" fill="none" xmlns="http://www.w3.org/2000/svg">
<path d="M15.8589 10.1006L11.5464 15.8575L8.66797 13.7013" stroke="#2F4786" stroke-width="1.39563" stroke-linecap="round" stroke-linejoin="round"/>
<path d="M6.96059 6.96024C8.26128 6.96024 9.31571 5.90581 9.31571 4.60512C9.31571 3.30442 8.26128 2.25 6.96059 2.25C5.65989 2.25 4.60547 3.30442 4.60547 4.60512C4.60547 5.90581 5.65989 6.96024 6.96059 6.96024Z" stroke="#2F4786" stroke-width="1.39563" stroke-linecap="round" stroke-linejoin="round"/>
<path d="M4.8668 14.8104H2.25V13.2403C2.25082 12.3093 2.52751 11.3994 3.04514 10.6256C3.56276 9.85174 4.29809 9.24866 5.15827 8.89249C6.01844 8.53633 6.96487 8.44306 7.87802 8.62446C8.79117 8.80586 9.63008 9.25381 10.2888 9.91171" stroke="#2F4786" stroke-width="1.39563" stroke-linecap="round" stroke-linejoin="round"/>
</svg>
