<svg width="24" height="24" viewBox="0 0 24 24" fill="none" xmlns="http://www.w3.org/2000/svg">
<path d="M5.07697 17.1365L3 17.6626L4.38465 13.5087V5.20081C4.38465 4.83358 4.53053 4.48139 4.7902 4.22172C5.04987 3.96204 5.40206 3.81616 5.76929 3.81616H16.8465C17.2137 3.81616 17.5659 3.96204 17.8255 4.22172C18.0852 4.48139 18.2311 4.83358 18.2311 5.20081V7.27778" stroke="white" stroke-width="1.38465" stroke-linecap="round" stroke-linejoin="round"/>
<path d="M16.1536 20.4315L20.9999 21.8162L20.3076 17.6622V12.1237C20.3076 11.7564 20.1617 11.4042 19.902 11.1446C19.6424 10.8849 19.2902 10.739 18.9229 10.739H9.92273C9.5555 10.739 9.20331 10.8849 8.94364 11.1446C8.68397 11.4042 8.53809 11.7564 8.53809 12.1237V19.0469C8.53809 19.4141 8.68397 19.7663 8.94364 20.026C9.20331 20.2857 9.5555 20.4315 9.92273 20.4315H16.1536Z" stroke="white" stroke-width="1.38465" stroke-linecap="round" stroke-linejoin="round"/>
</svg>
