<svg width="127" height="160" viewBox="0 0 127 160" fill="none" xmlns="http://www.w3.org/2000/svg">
<path d="M70.3086 33.9829C70.304 36.0312 69.5731 38.0115 68.2458 39.5717C66.9186 41.1319 65.0811 42.1709 63.06 42.5039C61.0389 42.8369 58.9652 42.4423 57.2076 41.3904C55.45 40.3384 54.1225 38.6973 53.4609 36.7587C52.7994 34.8201 52.8468 32.7098 53.5946 30.8028C54.3425 28.8959 55.7424 27.316 57.5455 26.344C59.3485 25.372 61.4378 25.0709 63.4419 25.4943C65.446 25.9177 67.2351 27.0381 68.4909 28.6562C69.6733 30.1797 70.313 32.0544 70.3086 33.9829Z" fill="#2F4786"/>
<path d="M84.9733 12.2499L73.5143 23.7088C73.2607 23.9652 72.9166 24.1116 72.556 24.1166C72.1955 24.1215 71.8474 23.9847 71.5868 23.7355C67.7682 20.0368 61.7924 18.5953 56.782 20.4529C51.3622 22.4504 47.5736 28.3297 48.1928 34.0792C48.6422 38.2239 51.1091 41.8927 53.9822 44.9189L54.0654 45.0088C56.3594 47.3922 57.6315 50.5776 57.6104 53.8857C57.5892 57.1937 56.2765 60.3626 53.9522 62.7165L50.6231 66.0723C50.3762 66.3212 50.044 66.4671 49.6937 66.4807C49.3434 66.4943 49.0009 66.3745 48.7355 66.1456C44.2178 62.2538 39.7234 58.3087 35.8117 53.8077C31.617 48.9871 28.0847 43.4707 26.297 37.3351C24.2869 30.3035 24.6949 22.8007 27.4555 16.0285C28.1427 14.3537 28.9784 12.7438 29.9524 11.2179C30.4384 10.4555 30.9511 9.71309 31.5204 9.00065C32.1663 8.17169 32.882 7.40598 33.6011 6.63029L34.5799 5.58161C34.7064 5.44446 34.8594 5.33429 35.0295 5.25772C35.1997 5.18115 35.3836 5.13976 35.5701 5.13602C35.7567 5.13229 35.9421 5.1663 36.1152 5.23601C36.2883 5.30571 36.4455 5.40968 36.5774 5.54166L39.0842 8.03519C39.3026 8.2534 39.5951 8.38141 39.9035 8.39374C40.212 8.40608 40.5137 8.30185 40.7488 8.10177C47.0438 2.83577 55.0921 0.135683 63.2893 0.539834C71.4865 0.943985 79.2302 4.42269 84.9766 10.2824C85.1064 10.4114 85.2092 10.5648 85.2794 10.7337C85.3495 10.9027 85.3854 11.0839 85.3851 11.2668C85.3848 11.4498 85.3482 11.6308 85.2775 11.7996C85.2069 11.9683 85.1035 12.1214 84.9733 12.2499Z" fill="#2F4786"/>
<path d="M56.8848 68.919C56.8859 67.3184 57.3425 65.7512 58.2012 64.4004C59.06 63.0497 60.2854 61.9713 61.7343 61.2911C63.1832 60.611 64.7958 60.3573 66.3836 60.5596C67.9713 60.762 69.4687 61.412 70.7007 62.4338C71.1064 62.769 71.4787 63.1425 71.8127 63.5491C72.6757 64.5914 73.2753 65.8261 73.5606 67.1489C73.846 68.4717 73.8088 69.8438 73.4522 71.1492C73.0956 72.4547 72.4301 73.6551 71.5119 74.6491C70.5937 75.6432 69.4497 76.4016 68.1766 76.8605C66.9035 77.3193 65.5387 77.4649 64.1974 77.2852C62.8562 77.1055 61.5779 76.6056 60.4705 75.8277C59.3631 75.0499 58.4592 74.017 57.8351 72.8163C57.211 71.6155 56.8851 70.2822 56.8848 68.929V68.919Z" fill="#2F4786"/>
<path d="M42.0372 89.7625L53.4994 78.3069C53.7525 78.0511 54.0957 77.9047 54.4554 77.8991C54.8152 77.8935 55.1628 78.0292 55.4237 78.2769C59.2522 81.9789 65.2214 83.4205 70.2184 81.5628C75.6416 79.5653 79.4302 73.686 78.8076 67.9366C78.3615 63.7918 75.8946 60.123 73.0216 57.0968L72.935 57.007C70.6426 54.6227 69.3716 51.4376 69.3927 48.1301C69.4139 44.8226 70.7255 41.654 73.0482 39.2992L76.3774 35.9434C76.6237 35.695 76.9549 35.5491 77.3045 35.5349C77.654 35.5207 77.996 35.6393 78.2617 35.8668C82.7793 39.7619 87.2737 43.707 91.1888 48.2047C95.3835 53.0286 98.9157 58.545 100.7 64.6807C102.715 71.7118 102.307 79.216 99.5416 85.9872C98.8569 87.6625 98.0223 89.2726 97.0481 90.7979C96.5587 91.5602 96.0493 92.3026 95.48 93.0151C94.8142 93.844 94.1184 94.6097 93.396 95.3854L92.4039 96.4208C92.2774 96.558 92.1244 96.6681 91.9543 96.7447C91.7841 96.8213 91.6002 96.8627 91.4137 96.8664C91.2271 96.8701 91.0417 96.8361 90.8686 96.7664C90.6955 96.6967 90.5383 96.5927 90.4064 96.4608L87.8996 93.9672C87.6808 93.7497 87.3885 93.6222 87.0802 93.6099C86.772 93.5975 86.4704 93.7013 86.235 93.9006C79.9451 99.1637 71.9029 101.863 63.7115 101.461C55.52 101.059 47.781 97.5841 42.0372 91.73C41.9076 91.601 41.8048 91.4477 41.7347 91.2789C41.6645 91.1101 41.6284 90.9291 41.6284 90.7463C41.6284 90.5635 41.6645 90.3824 41.7347 90.2136C41.8048 90.0448 41.9076 89.8915 42.0372 89.7625Z" fill="#2F4786"/>
<path d="M4.6355 158.664C3.3916 158.173 2.30755 157.348 1.50301 156.28C0.704334 155.179 0.27167 153.855 0.266113 152.494H6.11381C6.15109 153.215 6.46243 153.894 6.98411 154.393C7.51741 154.853 8.20582 155.093 8.9095 155.064C9.59872 155.102 10.2803 154.903 10.8409 154.5C11.0733 154.315 11.2585 154.078 11.3813 153.807C11.5041 153.537 11.5609 153.241 11.5472 152.945C11.5564 152.688 11.5122 152.433 11.4172 152.195C11.3223 151.957 11.1788 151.741 10.9958 151.562C10.5933 151.182 10.1246 150.879 9.6129 150.667C8.85221 150.357 8.07514 150.088 7.28514 149.863C6.06121 149.503 4.86573 149.053 3.70857 148.516C2.76628 148.05 1.94879 147.367 1.32418 146.522C0.662517 145.639 0.331684 144.488 0.331684 143.067C0.331684 140.969 1.09171 139.325 2.61175 138.135C4.13179 136.944 6.11878 136.348 8.57271 136.346C11.0584 136.346 13.0613 136.942 14.5814 138.135C16.1014 139.327 16.9161 140.982 17.0253 143.1H11.0644C11.0586 142.773 10.984 142.451 10.8453 142.154C10.7067 141.858 10.5071 141.594 10.2597 141.38C9.72487 140.948 9.05101 140.726 8.36407 140.754C7.78139 140.726 7.20901 140.915 6.7576 141.285C6.5322 141.506 6.3611 141.776 6.25779 142.074C6.15447 142.372 6.12175 142.69 6.16219 143.003C6.20264 143.316 6.31515 143.615 6.49088 143.877C6.6666 144.139 6.90074 144.357 7.17486 144.513C8.20071 145.067 9.28151 145.512 10.3997 145.842C11.6131 146.236 12.7999 146.708 13.9525 147.255C14.8797 147.718 15.6875 148.389 16.313 149.216C16.9787 150.072 17.3115 151.175 17.3115 152.524C17.3249 153.762 16.9847 154.978 16.3309 156.029C15.6361 157.114 14.651 157.983 13.4875 158.536C12.1075 159.185 10.5948 159.501 9.07045 159.46C7.55433 159.487 6.04759 159.217 4.6355 158.664Z" fill="#2F4786"/>
<path d="M24.1096 158.375C22.7231 157.641 21.5753 156.526 20.8013 155.162C20.0061 153.658 19.5917 151.983 19.5943 150.282C19.5968 148.582 20.0164 146.908 20.8162 145.407C21.5948 144.034 22.7486 142.913 24.1424 142.173C25.6146 141.41 27.2531 141.024 28.9112 141.049C30.5582 141.029 32.1849 141.415 33.6471 142.173C35.046 142.909 36.2052 144.03 36.9882 145.404C37.8233 146.889 38.2452 148.57 38.2102 150.274C38.246 151.978 37.8185 153.66 36.9733 155.141C36.1778 156.516 35.0076 157.636 33.5994 158.372C32.126 159.132 30.4883 159.518 28.8307 159.495C27.1885 159.518 25.5663 159.133 24.1096 158.375ZM31.534 153.585C32.2731 152.812 32.6427 151.709 32.6427 150.277C32.6427 148.844 32.2821 147.74 31.5608 146.965C31.2207 146.6 30.8092 146.308 30.3518 146.107C29.8944 145.907 29.4008 145.802 28.9014 145.8C28.402 145.798 27.9075 145.898 27.4483 146.094C26.9891 146.291 26.5751 146.579 26.2317 146.942C25.5243 147.703 25.1706 148.811 25.1706 150.268C25.1706 151.724 25.5194 152.827 26.2168 153.576C26.5419 153.949 26.9452 154.246 27.3979 154.446C27.8507 154.646 28.3419 154.744 28.8366 154.733C29.3393 154.741 29.838 154.643 30.3002 154.445C30.7624 154.247 31.1777 153.954 31.5191 153.585H31.534Z" fill="#2F4786"/>
<path d="M41.1908 145.392C41.9165 144.032 43.0239 142.913 44.3769 142.173C45.8141 141.406 47.4241 141.019 49.0533 141.05C51.3006 141.05 53.1803 141.639 54.6924 142.817C56.2044 143.995 57.1979 145.656 57.6728 147.798H51.8281C51.3334 146.427 50.3826 145.741 48.9669 145.741C48.5002 145.726 48.0371 145.826 47.6175 146.03C47.1979 146.235 46.8344 146.539 46.5586 146.915C45.9625 147.696 45.6645 148.816 45.6645 150.274C45.6645 151.733 45.9625 152.851 46.5586 153.63C46.8344 154.007 47.1979 154.311 47.6175 154.515C48.0371 154.72 48.5002 154.819 48.9669 154.805C50.3826 154.805 51.3334 154.119 51.8281 152.748H57.6758C57.2049 154.846 56.2114 156.496 54.6953 157.696C53.1793 158.896 51.3045 159.492 49.0712 159.484C47.4373 159.523 45.8208 159.141 44.3769 158.375C43.0263 157.636 41.9202 156.52 41.1938 155.162C40.4447 153.643 40.0552 151.971 40.0552 150.277C40.0552 148.583 40.4447 146.912 41.1938 145.392H41.1908Z" fill="#2F4786"/>
<path d="M60.9877 138.597C60.6928 138.332 60.4585 138.007 60.3006 137.644C60.1427 137.281 60.0649 136.888 60.0727 136.492C60.0626 136.091 60.1391 135.693 60.297 135.324C60.4549 134.955 60.6905 134.625 60.9877 134.355C61.6338 133.773 62.4822 133.467 63.3512 133.503C64.2098 133.471 65.0467 133.777 65.6819 134.355C65.9787 134.625 66.2139 134.956 66.3718 135.324C66.5297 135.693 66.6064 136.091 66.5969 136.492C66.6039 136.888 66.5258 137.281 66.3679 137.644C66.2101 138.007 65.9761 138.332 65.6819 138.597C65.0467 139.175 64.2098 139.481 63.3512 139.449C62.4822 139.485 61.6338 139.179 60.9877 138.597ZM66.0813 141.312V159.245H60.5883V141.309L66.0813 141.312Z" fill="#2F4786"/>
<path d="M73.4908 158.375C72.1041 157.64 70.9555 156.526 70.1795 155.162C69.3565 153.668 68.9451 151.982 68.9873 150.277C68.9506 148.573 69.3727 146.891 70.2093 145.407C70.9887 144.034 72.1437 142.912 73.5385 142.173C75.0154 141.434 76.644 141.049 78.2954 141.049C79.9467 141.049 81.5754 141.434 83.0522 142.173C84.4547 142.909 85.6172 144.031 86.4023 145.407C87.2068 146.904 87.6267 148.577 87.6241 150.277C87.6215 151.977 87.1965 153.649 86.3874 155.144C85.5907 156.519 84.4196 157.64 83.0105 158.375C81.5372 159.135 79.8994 159.521 78.2417 159.498C76.5892 159.525 74.9561 159.139 73.4908 158.375ZM80.9152 153.585C81.6544 152.812 82.0239 151.709 82.0239 150.277C82.0239 148.844 81.6643 147.74 80.945 146.965C80.6047 146.602 80.1935 146.312 79.7369 146.113C79.2802 145.914 78.7877 145.811 78.2896 145.809C77.7916 145.808 77.2985 145.908 76.8407 146.105C76.383 146.301 75.9702 146.589 75.6278 146.951C74.9205 147.712 74.5668 148.82 74.5668 150.277C74.5668 151.733 74.9155 152.836 75.6129 153.585C75.9376 153.958 76.3404 154.255 76.7926 154.455C77.2448 154.655 77.7355 154.752 78.2298 154.742C78.7336 154.749 79.2333 154.65 79.6961 154.45C80.1589 154.251 80.5743 153.956 80.9152 153.585Z" fill="#2F4786"/>
<path d="M108.246 141.309V159.242H102.75V156.798C102.165 157.614 101.387 158.272 100.484 158.712C99.5019 159.201 98.4168 159.449 97.3191 159.436C96.0486 159.461 94.7947 159.144 93.6889 158.518C92.6284 157.898 91.7773 156.975 91.2449 155.868C90.6409 154.594 90.3438 153.195 90.3776 151.785V141.309H95.8408V151.046C95.8408 152.238 96.1518 153.17 96.7737 153.842C97.096 154.177 97.4865 154.44 97.9189 154.612C98.3512 154.784 98.8154 154.862 99.2803 154.84C99.7502 154.863 100.22 154.786 100.657 154.614C101.095 154.442 101.491 154.179 101.82 153.842C102.44 153.18 102.75 152.248 102.75 151.046V141.309H108.246Z" fill="#2F4786"/>
<path d="M115.313 158.697C114.175 158.225 113.179 157.466 112.422 156.494C111.722 155.591 111.307 154.501 111.229 153.361H116.66C116.687 153.66 116.779 153.95 116.929 154.21C117.079 154.471 117.283 154.695 117.527 154.87C118.077 155.268 118.744 155.472 119.423 155.451C119.982 155.485 120.538 155.344 121.014 155.048C121.189 154.936 121.332 154.781 121.431 154.598C121.529 154.415 121.58 154.21 121.578 154.002C121.58 153.752 121.504 153.507 121.359 153.303C121.215 153.099 121.01 152.945 120.773 152.864C119.931 152.517 119.06 152.243 118.171 152.044C117.079 151.802 116.006 151.484 114.958 151.093C114.099 150.761 113.336 150.221 112.738 149.52C112.118 148.802 111.808 147.833 111.808 146.611C111.799 145.609 112.097 144.628 112.66 143.8C113.286 142.904 114.156 142.207 115.167 141.791C116.412 141.271 117.752 141.019 119.101 141.052C121.35 141.052 123.124 141.609 124.421 142.724C125.066 143.28 125.596 143.958 125.979 144.719C126.362 145.48 126.591 146.309 126.653 147.159H121.572C121.541 146.869 121.453 146.587 121.312 146.331C121.172 146.075 120.981 145.85 120.752 145.669C120.228 145.283 119.587 145.089 118.937 145.12C118.414 145.085 117.893 145.215 117.447 145.49C117.283 145.603 117.15 145.754 117.06 145.931C116.97 146.108 116.926 146.305 116.931 146.503C116.932 146.757 117.012 147.004 117.158 147.211C117.305 147.418 117.512 147.575 117.751 147.66C118.574 148.003 119.43 148.262 120.305 148.432C121.407 148.702 122.491 149.041 123.551 149.445C124.407 149.79 125.163 150.342 125.753 151.052C126.385 151.791 126.712 152.784 126.734 154.032C126.744 155.041 126.431 156.028 125.84 156.846C125.19 157.716 124.31 158.389 123.3 158.789C122.089 159.28 120.792 159.521 119.485 159.498C118.054 159.523 116.633 159.25 115.313 158.697Z" fill="#2F4786"/>
</svg>
