<svg width="106" height="138" viewBox="0 0 106 138" fill="none" xmlns="http://www.w3.org/2000/svg">
<path d="M62.208 45.9861C62.2017 48.7562 61.2133 51.4342 59.4184 53.5441C57.6236 55.654 55.1386 57.0591 52.4054 57.5094C49.6722 57.9597 46.8679 57.4261 44.491 56.0036C42.1141 54.581 40.3188 52.3616 39.4242 49.74C38.5295 47.1184 38.5936 44.2644 39.605 41.6856C40.6164 39.1068 42.5095 36.9702 44.9479 35.6558C47.3862 34.3413 50.2116 33.9341 52.9219 34.5067C55.6321 35.0792 58.0515 36.5944 59.7498 38.7827C61.3488 40.843 62.2139 43.3782 62.208 45.9861Z" fill="#2F8647"/>
<path d="M82.0398 16.5966L66.5434 32.093C66.2004 32.4396 65.735 32.6376 65.2474 32.6444C64.7598 32.6511 64.2891 32.466 63.9366 32.129C58.7727 27.1271 50.6913 25.1777 43.9156 27.6899C36.5861 30.3912 31.4626 38.342 32.3 46.1172C32.9078 51.7224 36.2439 56.6837 40.1293 60.7762L40.2418 60.8977C43.3441 64.121 45.0644 68.4287 45.0358 72.9023C45.0072 77.3759 43.232 81.6613 40.0887 84.8447L35.5866 89.3828C35.2527 89.7194 34.8035 89.9167 34.3297 89.9351C33.856 89.9535 33.3929 89.7915 33.0339 89.4819C26.9245 84.2188 20.8466 78.8838 15.5565 72.7969C9.88383 66.2778 5.10706 58.8177 2.6894 50.5203C-0.0288491 41.0111 0.522856 30.8649 4.25615 21.7065C5.18552 19.4417 6.31555 17.2645 7.63276 15.2009C8.29008 14.1699 8.98341 13.166 9.75327 12.2025C10.6267 11.0815 11.5947 10.046 12.5671 8.99697L13.8907 7.57879C14.0619 7.39332 14.2687 7.24434 14.4988 7.14079C14.7289 7.03724 14.9776 6.98126 15.2299 6.97621C15.4822 6.97117 15.7329 7.01716 15.967 7.11142C16.201 7.20569 16.4137 7.34628 16.592 7.52477L19.9822 10.8969C20.2774 11.192 20.673 11.3651 21.0901 11.3818C21.5072 11.3984 21.9153 11.2575 22.2332 10.9869C30.7461 3.86549 41.6303 0.214052 52.7156 0.760602C63.801 1.30715 74.2732 6.01154 82.0443 13.9358C82.2197 14.1103 82.3589 14.3177 82.4537 14.5462C82.5485 14.7747 82.5971 15.0198 82.5966 15.2671C82.5962 15.5145 82.5468 15.7594 82.4512 15.9876C82.3556 16.2158 82.2158 16.4228 82.0398 16.5966Z" fill="#2F4786"/>
<path d="M44.0547 93.2322C44.0562 91.0676 44.6736 88.9481 45.835 87.1215C46.9963 85.2948 48.6535 83.8364 50.6129 82.9167C52.5724 81.9969 54.7531 81.6538 56.9003 81.9274C59.0475 82.2011 61.0725 83.0802 62.7386 84.462C63.2871 84.9152 63.7907 85.4203 64.2423 85.9702C65.4095 87.3798 66.2202 89.0495 66.6061 90.8384C66.992 92.6273 66.9418 94.4828 66.4595 96.2482C65.9773 98.0135 65.0773 99.6369 63.8356 100.981C62.5938 102.326 61.0467 103.351 59.3251 103.972C57.6034 104.592 55.7577 104.789 53.9439 104.546C52.1301 104.303 50.4014 103.627 48.9038 102.575C47.4063 101.523 46.1839 100.126 45.3399 98.5026C44.4959 96.8788 44.0551 95.0757 44.0547 93.2457V93.2322Z" fill="#2F4786"/>
<path d="M23.9746 121.42L39.4755 105.928C39.8177 105.582 40.2819 105.384 40.7684 105.376C41.2549 105.369 41.725 105.552 42.0778 105.887C47.2552 110.894 55.3276 112.843 62.0853 110.331C69.4193 107.63 74.5427 99.6789 73.7008 91.9037C73.0976 86.2985 69.7615 81.3371 65.8761 77.2447L65.7591 77.1231C62.6589 73.8988 60.9401 69.5914 60.9687 65.1186C60.9973 60.6457 62.771 56.3607 65.9121 53.1762L70.4143 48.638C70.7474 48.3021 71.1953 48.1047 71.668 48.0855C72.1407 48.0663 72.6032 48.2267 72.9625 48.5345C79.0719 53.802 85.1498 59.137 90.4443 65.2194C96.117 71.7431 100.894 79.2031 103.307 87.5006C106.031 97.009 105.479 107.157 101.74 116.314C100.814 118.58 99.6856 120.757 98.3681 122.82C97.7063 123.851 97.0175 124.855 96.2476 125.818C95.3472 126.939 94.4062 127.975 93.4293 129.024L92.0876 130.424C91.9165 130.61 91.7097 130.759 91.4796 130.862C91.2494 130.966 91.0008 131.022 90.7485 131.027C90.4962 131.032 90.2455 130.986 90.0114 130.891C89.7773 130.797 89.5647 130.657 89.3863 130.478L85.9962 127.106C85.7004 126.812 85.305 126.639 84.8882 126.623C84.4714 126.606 84.0635 126.746 83.7451 127.016C75.2391 134.133 64.3633 137.784 53.2857 137.24C42.2081 136.696 31.7423 131.997 23.9746 124.081C23.7994 123.906 23.6604 123.699 23.5656 123.47C23.4707 123.242 23.4219 122.997 23.4219 122.75C23.4219 122.503 23.4707 122.258 23.5656 122.03C23.6604 121.802 23.7994 121.594 23.9746 121.42Z" fill="#2F8647"/>
</svg>
