<svg width="24" height="24" viewBox="0 0 24 24" fill="none" xmlns="http://www.w3.org/2000/svg">
<path d="M11.8835 6.89258C13.0306 6.89258 13.9604 5.96272 13.9604 4.81567C13.9604 3.66863 13.0306 2.73877 11.8835 2.73877C10.7365 2.73877 9.80664 3.66863 9.80664 4.81567C9.80664 5.96272 10.7365 6.89258 11.8835 6.89258Z" stroke="#020305" stroke-width="1.4" stroke-linecap="round" stroke-linejoin="round"/>
<path d="M11.8835 13.8154C13.0306 13.8154 13.9604 12.8856 13.9604 11.7385C13.9604 10.5915 13.0306 9.66162 11.8835 9.66162C10.7365 9.66162 9.80664 10.5915 9.80664 11.7385C9.80664 12.8856 10.7365 13.8154 11.8835 13.8154Z" stroke="#020305" stroke-width="1.4" stroke-linecap="round" stroke-linejoin="round"/>
<path d="M11.8835 20.7388C13.0306 20.7388 13.9604 19.8089 13.9604 18.6619C13.9604 17.5148 13.0306 16.585 11.8835 16.585C10.7365 16.585 9.80664 17.5148 9.80664 18.6619C9.80664 19.8089 10.7365 20.7388 11.8835 20.7388Z" stroke="#020305" stroke-width="1.4" stroke-linecap="round" stroke-linejoin="round"/>
</svg>
