<svg width="6" height="17" viewBox="0 0 6 17" fill="none" xmlns="http://www.w3.org/2000/svg">
<path d="M2.90263 4.74381C3.8585 4.74381 4.63338 3.96892 4.63338 3.01306C4.63338 2.05719 3.8585 1.2823 2.90263 1.2823C1.94676 1.2823 1.17188 2.05719 1.17188 3.01306C1.17188 3.96892 1.94676 4.74381 2.90263 4.74381Z" stroke="#2F4786" stroke-width="1.4" stroke-linecap="round" stroke-linejoin="round"/>
<path d="M2.90263 10.513C3.8585 10.513 4.63338 9.73807 4.63338 8.78221C4.63338 7.82634 3.8585 7.05145 2.90263 7.05145C1.94676 7.05145 1.17188 7.82634 1.17188 8.78221C1.17188 9.73807 1.94676 10.513 2.90263 10.513Z" stroke="#2F4786" stroke-width="1.4" stroke-linecap="round" stroke-linejoin="round"/>
<path d="M2.90263 16.2825C3.8585 16.2825 4.63338 15.5076 4.63338 14.5517C4.63338 13.5959 3.8585 12.821 2.90263 12.821C1.94676 12.821 1.17188 13.5959 1.17188 14.5517C1.17188 15.5076 1.94676 16.2825 2.90263 16.2825Z" stroke="#2F4786" stroke-width="1.4" stroke-linecap="round" stroke-linejoin="round"/>
</svg>
