<svg width="22" height="18" viewBox="0 0 22 18" fill="none" xmlns="http://www.w3.org/2000/svg">
<path fill-rule="evenodd" clip-rule="evenodd" d="M20.7312 1.41142C21.2234 1.90371 21.5 2.57138 21.5 3.26758L21.5 14.5176C21.5 15.2138 21.2234 15.8815 20.7312 16.3737C20.2389 16.866 19.5712 17.1426 18.875 17.1426L6.125 17.1426C5.42881 17.1426 4.76113 16.866 4.26884 16.3737C3.77656 15.8815 3.5 15.2138 3.5 14.5176V12.6426C3.5 12.2284 3.83579 11.8926 4.25 11.8926C4.66421 11.8926 5 12.2284 5 12.6426V14.5176C5 14.8159 5.11853 15.1021 5.32951 15.3131C5.54048 15.5241 5.82663 15.6426 6.125 15.6426L18.875 15.6426C19.1734 15.6426 19.4595 15.5241 19.6705 15.3131C19.8815 15.1021 20 14.8159 20 14.5176L20 3.26758C20 2.96921 19.8815 2.68306 19.6705 2.47208C19.4595 2.2611 19.1734 2.14258 18.875 2.14258L6.125 2.14258C5.82663 2.14258 5.54048 2.2611 5.32951 2.47208C5.11853 2.68306 5 2.96921 5 3.26758V5.14258C5 5.55679 4.66421 5.89258 4.25 5.89258C3.83579 5.89258 3.5 5.55679 3.5 5.14258V3.26758C3.5 2.57138 3.77656 1.90371 4.26884 1.41142C4.76113 0.91914 5.42881 0.642578 6.125 0.642578L18.875 0.642578C19.5712 0.642578 20.2389 0.91914 20.7312 1.41142ZM13.0303 8.36225C13.3232 8.65514 13.3232 9.13001 13.0303 9.42291L9.28033 13.1729C8.98744 13.4658 8.51256 13.4658 8.21967 13.1729C7.92678 12.88 7.92678 12.4051 8.21967 12.1122L10.6893 9.64258L1.25 9.64258C0.835787 9.64258 0.5 9.30679 0.5 8.89258C0.5 8.47836 0.835787 8.14258 1.25 8.14258L10.6893 8.14258L8.21967 5.67291C7.92678 5.38001 7.92678 4.90514 8.21967 4.61225C8.51256 4.31936 8.98744 4.31936 9.28033 4.61225L13.0303 8.36225Z" fill="#373737"/>
</svg>
