<svg width="24" height="24" viewBox="0 0 24 24" fill="none" xmlns="http://www.w3.org/2000/svg">
<path d="M19.6663 8.16675H4.38886C3.62181 8.16675 3 8.78856 3 9.55561V19.2776C3 20.0447 3.62181 20.6665 4.38886 20.6665H19.6663C20.4334 20.6665 21.0552 20.0447 21.0552 19.2776V9.55561C21.0552 8.78856 20.4334 8.16675 19.6663 8.16675Z" stroke="#BEC0C7" stroke-width="1.4" stroke-linecap="round" stroke-linejoin="round"/>
<path d="M3 13.7219H21.0552" stroke="#BEC0C7" stroke-width="1.4" stroke-linecap="round" stroke-linejoin="round"/>
<path d="M12.0278 12.333V15.1107" stroke="#BEC0C7" stroke-width="1.4" stroke-linecap="round" stroke-linejoin="round"/>
<path d="M16.1942 8.16658C16.1942 7.06153 15.7552 6.00175 14.9738 5.22036C14.1924 4.43898 13.1326 4 12.0276 4V4C10.9226 4 9.86277 4.43898 9.08139 5.22036C8.3 6.00175 7.86102 7.06153 7.86102 8.16658" stroke="#BEC0C7" stroke-width="1.4" stroke-linecap="round" stroke-linejoin="round"/>
</svg>
