<svg width="18" height="18" viewBox="0 0 18 18" fill="none" xmlns="http://www.w3.org/2000/svg">
<path d="M6.96059 6.96024C8.26128 6.96024 9.31571 5.90581 9.31571 4.60512C9.31571 3.30442 8.26128 2.25 6.96059 2.25C5.65989 2.25 4.60547 3.30442 4.60547 4.60512C4.60547 5.90581 5.65989 6.96024 6.96059 6.96024Z" stroke="#2F4786" stroke-width="1.39563" stroke-linecap="round" stroke-linejoin="round"/>
<path d="M6.96024 14.8101H2.25V13.24C2.24974 12.4151 2.46612 11.6046 2.87749 10.8896C3.28885 10.1746 3.88078 9.58018 4.59404 9.16579C5.3073 8.7514 6.11687 8.53159 6.94177 8.52836C7.76666 8.52512 8.57793 8.73857 9.29442 9.14736" stroke="#2F4786" stroke-width="1.39563" stroke-linecap="round" stroke-linejoin="round"/>
<path d="M15.8561 11.4189L11.418 15.857" stroke="#2F4786" stroke-width="1.39563" stroke-linecap="round" stroke-linejoin="round"/>
<path d="M11.418 11.4189L15.8561 15.857" stroke="#2F4786" stroke-width="1.39563" stroke-linecap="round" stroke-linejoin="round"/>
</svg>
