<svg width="20" height="20" viewBox="0 0 20 20" fill="none" xmlns="http://www.w3.org/2000/svg">
<path d="M5.11673 12.6771C6.56191 12.6771 7.73346 11.5055 7.73346 10.0603C7.73346 8.61515 6.56191 7.4436 5.11673 7.4436C3.67155 7.4436 2.5 8.61515 2.5 10.0603C2.5 11.5055 3.67155 12.6771 5.11673 12.6771Z" stroke="#2F4786" stroke-width="1.39559" stroke-linecap="round" stroke-linejoin="round"/>
<path d="M15.0025 17.6198C16.4476 17.6198 17.6192 16.4483 17.6192 15.0031C17.6192 13.5579 16.4476 12.3864 15.0025 12.3864C13.5573 12.3864 12.3857 13.5579 12.3857 15.0031C12.3857 16.4483 13.5573 17.6198 15.0025 17.6198Z" stroke="#2F4786" stroke-width="1.39559" stroke-linecap="round" stroke-linejoin="round"/>
<path d="M15.0025 7.73443C16.4476 7.73443 17.6192 6.56288 17.6192 5.1177C17.6192 3.67253 16.4476 2.50098 15.0025 2.50098C13.5573 2.50098 12.3857 3.67253 12.3857 5.1177C12.3857 6.56288 13.5573 7.73443 15.0025 7.73443Z" stroke="#2F4786" stroke-width="1.39559" stroke-linecap="round" stroke-linejoin="round"/>
<path d="M7.4541 8.89737L12.6643 6.28064" stroke="#2F4786" stroke-width="1.39559" stroke-linecap="round" stroke-linejoin="round"/>
<path d="M7.4541 11.2233L12.6643 13.84" stroke="#2F4786" stroke-width="1.39559" stroke-linecap="round" stroke-linejoin="round"/>
</svg>
