<svg width="20" height="20" viewBox="0 0 20 20" fill="none" xmlns="http://www.w3.org/2000/svg">
<path d="M6.08984 11.5647L9.01998 16.2483C9.13353 16.4334 9.2931 16.586 9.48314 16.6911C9.67317 16.7962 9.88719 16.8503 10.1044 16.8482C10.2754 16.8543 10.4459 16.8262 10.6059 16.7653C10.7658 16.7044 10.912 16.6121 11.0356 16.4938C11.1593 16.3755 11.258 16.2336 11.3259 16.0765C11.3938 15.9195 11.4296 15.7503 11.431 15.5792V12.2222H16.4953C16.6824 12.2162 16.8661 12.1706 17.0344 12.0884C17.2026 12.0063 17.3516 11.8894 17.4714 11.7456C17.5913 11.6018 17.6793 11.4342 17.7298 11.2539C17.7803 11.0736 17.792 10.8846 17.7642 10.6995L16.8414 4.74694C16.802 4.42882 16.6478 4.13603 16.4077 3.9236C16.1677 3.71117 15.8583 3.59373 15.5378 3.59334H7.9702C7.60996 3.59193 7.25439 3.6749 6.93197 3.8356L6.10138 4.25089" stroke="#2F4786" stroke-width="1.4" stroke-linecap="round" stroke-linejoin="round"/>
<path d="M6.08984 11.5648V4.28558" stroke="#2F4786" stroke-width="1.4" stroke-linecap="round" stroke-linejoin="round"/>
<path d="M3.35414 4.28558H6.08816V11.5648H3.35414C3.20117 11.5648 3.05445 11.504 2.94628 11.3958C2.83811 11.2877 2.77734 11.1409 2.77734 10.988V4.86238C2.77734 4.7094 2.83811 4.56269 2.94628 4.45452C3.05445 4.34635 3.20117 4.28558 3.35414 4.28558V4.28558Z" stroke="#2F4786" stroke-width="1.4" stroke-linecap="round" stroke-linejoin="round"/>
</svg>
