<svg width="20" height="20" viewBox="0 0 20 20" fill="none" xmlns="http://www.w3.org/2000/svg">
<path d="M6.08984 11.5651L9.01998 16.2487C9.13353 16.4338 9.2931 16.5864 9.48314 16.6915C9.67317 16.7966 9.88719 16.8507 10.1044 16.8486C10.2754 16.8548 10.4459 16.8266 10.6059 16.7657C10.7658 16.7049 10.912 16.6126 11.0356 16.4943C11.1593 16.376 11.258 16.2341 11.3259 16.077C11.3938 15.9199 11.4296 15.7508 11.431 15.5796V12.2227H16.4953C16.6824 12.2166 16.8661 12.171 17.0344 12.0888C17.2026 12.0067 17.3516 11.8898 17.4714 11.746C17.5913 11.6022 17.6793 11.4346 17.7298 11.2543C17.7803 11.074 17.792 10.8851 17.7642 10.6999L16.8414 4.74736C16.802 4.42925 16.6478 4.13646 16.4077 3.92403C16.1677 3.7116 15.8583 3.59415 15.5378 3.59377H7.9702C7.60996 3.59236 7.25439 3.67532 6.93197 3.83602L6.10138 4.25132" stroke="white" stroke-width="1.4" stroke-linecap="round" stroke-linejoin="round"/>
<path d="M6.08984 11.5643V4.28516" stroke="white" stroke-width="1.4" stroke-linecap="round" stroke-linejoin="round"/>
<path d="M3.35414 4.28516H6.08816V11.5643H3.35414C3.20117 11.5643 3.05445 11.5036 2.94628 11.3954C2.83811 11.2872 2.77734 11.1405 2.77734 10.9875V4.86195C2.77734 4.70898 2.83811 4.56227 2.94628 4.4541C3.05445 4.34593 3.20117 4.28516 3.35414 4.28516V4.28516Z" stroke="white" stroke-width="1.4" stroke-linecap="round" stroke-linejoin="round"/>
</svg>
