<svg width="20" height="20" viewBox="0 0 20 20" fill="none" xmlns="http://www.w3.org/2000/svg">
<path d="M5.76953 8.98639L8.71209 4.28294C8.82612 4.09703 8.98637 3.94383 9.17721 3.83826C9.36805 3.73269 9.58298 3.67835 9.80106 3.68052V3.68052C9.97282 3.67432 10.1441 3.70262 10.3047 3.76374C10.4653 3.82485 10.6121 3.91755 10.7363 4.03635C10.8605 4.15515 10.9596 4.29764 11.0278 4.4554C11.096 4.61316 11.1319 4.783 11.1333 4.95486V8.32605H16.2191C16.407 8.33215 16.5915 8.37795 16.7605 8.46045C16.9294 8.54295 17.079 8.66028 17.1994 8.80472C17.3197 8.94916 17.4082 9.11745 17.4588 9.29851C17.5095 9.47957 17.5213 9.66931 17.4934 9.85526L16.5666 15.833C16.5271 16.1525 16.3722 16.4465 16.1312 16.6599C15.8901 16.8732 15.5794 16.9911 15.2575 16.9915H7.65786C7.29609 16.9929 6.93901 16.9096 6.61523 16.7482L5.78112 16.3312" stroke="white" stroke-width="1.4" stroke-linecap="round" stroke-linejoin="round"/>
<path d="M5.76953 8.98633V16.2964" stroke="white" stroke-width="1.4" stroke-linecap="round" stroke-linejoin="round"/>
<path d="M3.02456 8.98633H5.77017V16.2964H3.02456C2.87093 16.2964 2.7236 16.2353 2.61497 16.1267C2.50634 16.0181 2.44531 15.8708 2.44531 15.7171V9.56557C2.44531 9.41195 2.50634 9.26461 2.61497 9.15598C2.7236 9.04736 2.87093 8.98633 3.02456 8.98633V8.98633Z" stroke="white" stroke-width="1.4" stroke-linecap="round" stroke-linejoin="round"/>
</svg>
