<svg width="20" height="20" viewBox="0 0 20 20" fill="none" xmlns="http://www.w3.org/2000/svg">
<path d="M5.76953 8.98694L8.71209 4.28349C8.82612 4.09758 8.98637 3.94438 9.17721 3.83881C9.36805 3.73324 9.58298 3.6789 9.80106 3.68107V3.68107C9.97282 3.67487 10.1441 3.70317 10.3047 3.76428C10.4653 3.8254 10.6121 3.9181 10.7363 4.0369C10.8605 4.1557 10.9596 4.29819 11.0278 4.45595C11.096 4.61371 11.1319 4.78355 11.1333 4.95541V8.3266H16.2191C16.407 8.3327 16.5915 8.3785 16.7605 8.461C16.9294 8.5435 17.079 8.66083 17.1994 8.80527C17.3197 8.94971 17.4082 9.118 17.4588 9.29906C17.5095 9.48012 17.5213 9.66986 17.4934 9.8558L16.5666 15.8336C16.5271 16.1531 16.3722 16.4471 16.1312 16.6604C15.8901 16.8738 15.5794 16.9917 15.2575 16.9921H7.65786C7.29609 16.9935 6.93901 16.9102 6.61523 16.7488L5.78112 16.3317" stroke="white" stroke-width="1.4" stroke-linecap="round" stroke-linejoin="round"/>
<path d="M5.76953 8.98685V16.2969" stroke="white" stroke-width="1.4" stroke-linecap="round" stroke-linejoin="round"/>
<path d="M3.02456 8.98685H5.77017V16.2969H3.02456C2.87093 16.2969 2.7236 16.2359 2.61497 16.1272C2.50634 16.0186 2.44531 15.8713 2.44531 15.7177V9.56609C2.44531 9.41247 2.50634 9.26513 2.61497 9.1565C2.7236 9.04787 2.87093 8.98685 3.02456 8.98685V8.98685Z" stroke="white" stroke-width="1.4" stroke-linecap="round" stroke-linejoin="round"/>
</svg>
