<svg width="15" height="17" viewBox="0 0 15 17" fill="none" xmlns="http://www.w3.org/2000/svg">
<path fill-rule="evenodd" clip-rule="evenodd" d="M2.45508 0.909139C2.45508 0.586973 2.71625 0.325806 3.03841 0.325806H11.1152C11.4374 0.325806 11.6985 0.586973 11.6985 0.909139V4.37063C11.6985 5.59639 11.2116 6.77194 10.3449 7.63868C9.47813 8.50543 8.30257 8.99236 7.07681 8.99236C5.85105 8.99236 4.6755 8.50543 3.80875 7.63868C2.94201 6.77194 2.45508 5.59639 2.45508 4.37063V0.909139ZM3.62174 1.49247V4.37063C3.62174 5.28697 3.98576 6.16578 4.63371 6.81373C5.28166 7.46168 6.16047 7.82569 7.07681 7.82569C7.99315 7.82569 8.87196 7.46168 9.51992 6.81373C10.1679 6.16578 10.5319 5.28697 10.5319 4.37063V1.49247H3.62174Z" fill="#2F4786"/>
<path fill-rule="evenodd" clip-rule="evenodd" d="M3.80875 9.17948C4.6755 8.31274 5.85105 7.82581 7.07681 7.82581C8.30257 7.82581 9.47813 8.31274 10.3449 9.17948C11.2116 10.0462 11.6985 11.2218 11.6985 12.4475V15.909C11.6985 16.2312 11.4374 16.4924 11.1152 16.4924H3.03841C2.71625 16.4924 2.45508 16.2312 2.45508 15.909V12.4475C2.45508 11.2218 2.94201 10.0462 3.80875 9.17948ZM7.07681 8.99247C6.16047 8.99247 5.28166 9.35649 4.63371 10.0044C3.98576 10.6524 3.62174 11.5312 3.62174 12.4475V15.3257H10.5319V12.4475C10.5319 11.5312 10.1679 10.6524 9.51992 10.0044C8.87196 9.35649 7.99315 8.99247 7.07681 8.99247Z" fill="#2F4786"/>
<path fill-rule="evenodd" clip-rule="evenodd" d="M0.146484 0.909139C0.146484 0.586973 0.407652 0.325806 0.729818 0.325806H13.4219C13.7441 0.325806 14.0053 0.586973 14.0053 0.909139C14.0053 1.23131 13.7441 1.49247 13.4219 1.49247H0.729818C0.407652 1.49247 0.146484 1.23131 0.146484 0.909139Z" fill="#2F4786"/>
<path fill-rule="evenodd" clip-rule="evenodd" d="M0.146484 15.9088C0.146484 15.5866 0.407652 15.3254 0.729818 15.3254H13.4219C13.7441 15.3254 14.0053 15.5866 14.0053 15.9088C14.0053 16.2309 13.7441 16.4921 13.4219 16.4921H0.729818C0.407652 16.4921 0.146484 16.2309 0.146484 15.9088Z" fill="#2F4786"/>
</svg>
