<svg width="113" height="24" viewBox="0 0 113 24" fill="none" xmlns="http://www.w3.org/2000/svg">
<path d="M3.89854 22.3778C2.78911 21.9443 1.82217 21.2124 1.10534 20.2636C0.385028 19.2832 -0.00224153 18.099 9.76008e-06 16.8838H5.21298C5.24921 17.531 5.52615 18.1415 5.9897 18.596C6.44782 19.0116 7.04324 19.2448 7.66263 19.2511C8.28146 19.2865 8.89356 19.1077 9.39531 18.7449C9.60336 18.581 9.76891 18.3696 9.87807 18.1287C9.98723 17.8878 10.0368 17.6243 10.0227 17.3603C10.0316 17.1323 9.9908 16.905 9.90312 16.6943C9.81544 16.4835 9.68296 16.2942 9.5148 16.1394C9.16012 15.7979 8.74476 15.5253 8.28997 15.3354C7.60653 15.0593 6.90844 14.8207 6.19882 14.6207C5.12119 14.2585 4.07262 13.8156 3.06207 13.2956C2.22319 12.8825 1.49586 12.2749 0.941034 11.5239C0.321466 10.6294 0.0120111 9.5576 0.0597586 8.47166C0.0195564 7.63074 0.18318 6.79255 0.536781 6.02802C0.890382 5.26348 1.42356 4.59511 2.09117 4.07946C3.62594 2.96366 5.49603 2.40181 7.39376 2.48636C9.31081 2.39531 11.2019 2.95713 12.7561 4.07946C13.4366 4.60955 13.9867 5.28742 14.3646 6.06146C14.7425 6.83549 14.9382 7.68527 14.9369 8.5461H9.6343C9.62113 8.26267 9.55087 7.98478 9.42769 7.72899C9.30452 7.4732 9.13095 7.24474 8.91733 7.05722C8.44156 6.6734 7.84083 6.47734 7.22946 6.50634C6.69041 6.46184 6.15504 6.62728 5.73577 6.96789C5.54323 7.1673 5.39937 7.40825 5.31536 7.67205C5.23134 7.93584 5.20943 8.21538 5.25133 8.48898C5.29322 8.76258 5.3978 9.02287 5.55693 9.24967C5.71607 9.47647 5.92549 9.66368 6.16894 9.79676C7.07913 10.2917 8.04078 10.6861 9.03682 10.973C10.1188 11.32 11.1766 11.7378 12.2034 12.2236C13.0275 12.6398 13.7472 13.2351 14.3095 13.9656C14.9392 14.8278 15.2553 15.8781 15.2057 16.9434C15.2155 18.0478 14.9098 19.1322 14.3245 20.07C13.6926 21.008 12.8141 21.7549 11.7852 22.2289C10.5588 22.8081 9.21356 23.0937 7.85681 23.0627C6.50515 23.0946 5.16032 22.8619 3.89854 22.3778Z" fill="#2F4786"/>
<path d="M21.2702 22.1248C20.021 21.4757 18.9844 20.4837 18.2828 19.2661C17.5437 17.9377 17.1725 16.4372 17.2073 14.9186C17.1739 13.403 17.5506 11.9064 18.2977 10.586C18.9964 9.36236 20.0334 8.36487 21.2851 7.71243C22.6051 7.05689 24.0598 6.7157 25.5346 6.7157C27.0094 6.7157 28.4641 7.05689 29.7842 7.71243C31.0358 8.36487 32.0728 9.36236 32.7715 10.586C33.5187 11.9064 33.8953 13.403 33.8619 14.9186C33.8953 16.4342 33.5187 17.9308 32.7715 19.2512C32.0637 20.4678 31.0291 21.463 29.7842 22.1248C28.4696 22.8026 27.007 23.1453 25.5272 23.1223C24.0463 23.1542 22.5816 22.811 21.2702 22.1248ZM27.8872 17.8666C28.2397 17.4592 28.5083 16.9864 28.6774 16.4755C28.8466 15.9646 28.913 15.4254 28.873 14.8888C28.9556 13.81 28.6126 12.7417 27.9171 11.9111C27.6182 11.5962 27.2564 11.3474 26.855 11.1807C26.4536 11.014 26.0216 10.9331 25.5869 10.9433C25.1394 10.9341 24.695 11.0196 24.2831 11.1941C23.8711 11.3686 23.501 11.6282 23.197 11.9557C22.5151 12.7931 22.1786 13.8578 22.256 14.9335C22.1789 16.0067 22.5095 17.0696 23.1821 17.9113C23.4721 18.2451 23.8329 18.5105 24.2385 18.6882C24.6441 18.8659 25.0843 18.9514 25.5272 18.9386C25.9738 18.9342 26.4146 18.8365 26.8211 18.6519C27.2276 18.4672 27.5908 18.1997 27.8872 17.8666Z" fill="#2F4786"/>
<path d="M36.5199 10.5711C37.1684 9.36451 38.1543 8.37147 39.3579 7.71243C40.6338 7.03175 42.0634 6.68831 43.5103 6.71488C45.3178 6.64979 47.0935 7.20127 48.544 8.27821C49.9395 9.40066 50.8832 10.9861 51.2028 12.7448H46.0048C45.8578 12.2012 45.5322 11.7223 45.08 11.3849C44.6278 11.0475 44.0751 10.871 43.5103 10.8837C43.0939 10.8706 42.6805 10.9586 42.3058 11.1402C41.9311 11.3217 41.6063 11.5914 41.3594 11.926C40.7719 12.8043 40.4886 13.85 40.5528 14.9037C40.4886 15.9574 40.7719 17.0032 41.3594 17.8815C41.608 18.2142 41.9332 18.4825 42.3075 18.6638C42.6818 18.8452 43.0943 18.9343 43.5103 18.9237C44.0812 18.9518 44.6447 18.7859 45.1087 18.4532C45.5726 18.1205 45.9096 17.6408 46.0645 17.0924H51.2775C50.9374 18.8263 49.9897 20.3831 48.6038 21.4846C47.1536 22.6136 45.349 23.1938 43.5103 23.1223C42.0584 23.1515 40.6233 22.808 39.3429 22.1248C38.1427 21.4595 37.162 20.4612 36.5199 19.2512C35.8207 17.91 35.4714 16.4149 35.5041 14.9037C35.4707 13.3972 35.8201 11.9068 36.5199 10.5711Z" fill="#2F4786"/>
<path d="M54.1914 4.52619C53.9264 4.29138 53.7158 4.00204 53.5739 3.67815C53.4321 3.35426 53.3625 3.00353 53.3699 2.65021C53.3611 2.29232 53.43 1.93677 53.5718 1.60785C53.7136 1.27894 53.9249 0.984423 54.1914 0.744439C54.7813 0.263037 55.5202 0 56.2826 0C57.045 0 57.7838 0.263037 58.3737 0.744439C58.6402 0.984423 58.8516 1.27894 58.9934 1.60785C59.1352 1.93677 59.204 2.29232 59.1953 2.65021C59.2121 2.9979 59.1542 3.34516 59.0254 3.66871C58.8966 3.99227 58.6999 4.28463 58.4484 4.52619C57.8623 5.0157 57.122 5.28396 56.3573 5.28396C55.5926 5.28396 54.8523 5.0157 54.2661 4.52619H54.1914ZM58.6725 6.93817V22.899H53.8329V6.93817H58.6725Z" fill="#2F4786"/>
<path d="M65.3483 22.1247C64.0991 21.4756 63.0625 20.4837 62.3609 19.2661C61.6218 17.9377 61.2506 16.4372 61.2854 14.9186C61.252 13.403 61.6287 11.9063 62.3758 10.5859C63.0718 9.36022 64.1095 8.36204 65.3632 7.71238C66.6803 7.05589 68.1327 6.71411 69.6053 6.71411C71.0779 6.71411 72.5302 7.05589 73.8474 7.71238C75.0956 8.36956 76.1314 9.3659 76.8347 10.5859C77.5751 11.909 77.9513 13.4038 77.9251 14.9186C77.9631 16.4328 77.5916 17.9293 76.8497 19.2512C76.1419 20.4677 75.1072 21.463 73.8623 22.1247C72.5477 22.8025 71.0852 23.1452 69.6053 23.1223C68.1245 23.1541 66.6597 22.8109 65.3483 22.1247ZM71.9653 17.8665C72.3179 17.4591 72.5864 16.9864 72.7555 16.4755C72.9247 15.9645 72.9912 15.4253 72.9511 14.8888C73.0337 13.81 72.6907 12.7416 71.9952 11.911C71.6984 11.5816 71.3341 11.3194 70.927 11.1421C70.5199 10.9649 70.0793 10.8768 69.6352 10.8837C69.1876 10.8745 68.7432 10.96 68.3313 11.1345C67.9193 11.309 67.5492 11.5686 67.2453 11.8961C66.5633 12.7334 66.2269 13.7982 66.3042 14.8739C66.2272 15.9471 66.5577 17.01 67.2303 17.8516C67.5203 18.1855 67.8812 18.4509 68.2868 18.6286C68.6924 18.8063 69.1326 18.8918 69.5754 18.879C70.0228 18.8872 70.4669 18.8013 70.8787 18.6269C71.2905 18.4524 71.6608 18.1933 71.9653 17.8665Z" fill="#2F4786"/>
<path d="M96.3575 6.93823V22.899H91.4582V20.7401C90.9314 21.4639 90.2336 22.0469 89.4267 22.4375C88.5506 22.8727 87.5825 23.0923 86.6037 23.0777C85.4659 23.0938 84.3453 22.8003 83.3624 22.229C82.4194 21.6754 81.661 20.8572 81.1816 19.8766C80.654 18.7496 80.3934 17.5169 80.4198 16.2735V6.93823H85.334V15.6035C85.2805 16.5089 85.5802 17.3998 86.1705 18.0899C86.456 18.3886 86.8023 18.6229 87.1862 18.777C87.5701 18.9311 87.9826 19.0014 88.3961 18.9833C88.8163 19.0021 89.2358 18.9322 89.627 18.7783C90.0183 18.6243 90.3725 18.3898 90.6665 18.0899C91.2568 17.3998 91.5565 16.5089 91.503 15.6035V6.93823H96.3575Z" fill="#2F4786"/>
<path d="M102.676 22.4076C101.657 21.9884 100.766 21.3108 100.092 20.4423C99.4637 19.6426 99.0939 18.6718 99.0312 17.6581H103.871C103.895 17.9242 103.977 18.1818 104.111 18.4131C104.246 18.6445 104.428 18.8441 104.648 18.9981C105.137 19.3533 105.73 19.5366 106.335 19.5192C106.859 19.5661 107.384 19.4406 107.829 19.1619C107.999 19.0508 108.136 18.895 108.223 18.7117C108.31 18.5284 108.344 18.3246 108.323 18.1229C108.301 17.9212 108.224 17.7294 108.1 17.5686C107.976 17.4077 107.81 17.2842 107.62 17.2114C106.863 16.9087 106.084 16.6647 105.29 16.4819C104.315 16.2734 103.356 15.9948 102.422 15.6481C101.659 15.3517 100.981 14.8707 100.45 14.2486C99.8636 13.5157 99.5661 12.5943 99.6138 11.6579C99.6118 10.7671 99.8771 9.89601 100.376 9.15661C100.933 8.35701 101.711 7.73624 102.616 7.36996C103.728 6.91097 104.923 6.68786 106.126 6.71485C107.839 6.61877 109.527 7.1481 110.876 8.20373C111.451 8.69894 111.923 9.30231 112.264 9.97933C112.604 10.6563 112.808 11.3937 112.863 12.1493H108.382C108.354 11.8909 108.276 11.6407 108.15 11.4131C108.024 11.1856 107.854 10.9853 107.65 10.8242C107.179 10.4925 106.612 10.325 106.037 10.3477C105.57 10.3159 105.105 10.4305 104.707 10.6753C104.562 10.7741 104.443 10.9076 104.362 11.0635C104.282 11.2195 104.241 11.3931 104.244 11.5686C104.246 11.7939 104.317 12.0132 104.448 12.1968C104.579 12.3805 104.763 12.5198 104.976 12.5959C105.711 12.9064 106.477 13.1361 107.261 13.2808C108.244 13.5277 109.212 13.831 110.159 14.189C110.93 14.5158 111.607 15.0272 112.131 15.6779C112.724 16.4319 113.031 17.3705 112.997 18.3281C113.006 19.2198 112.729 20.091 112.206 20.8145C111.633 21.5947 110.851 22.1983 109.95 22.5565C108.859 22.9929 107.69 23.2055 106.515 23.1818C105.194 23.2037 103.884 22.9396 102.676 22.4076Z" fill="#2F4786"/>
</svg>
