<svg width="45" height="45" viewBox="0 0 45 45" fill="none" xmlns="http://www.w3.org/2000/svg">
<path d="M21.5152 1.39529C21.9954 0.714881 23.0046 0.71488 23.4848 1.39529L26.9864 6.35655C27.2945 6.79316 27.8534 6.97474 28.3593 6.80265L34.1083 4.84709C34.8968 4.5789 35.7132 5.17204 35.7017 6.00477L35.6184 12.0767C35.6111 12.6111 35.9565 13.0864 36.467 13.2446L42.2675 15.0417C43.063 15.2882 43.3748 16.2479 42.8761 16.9149L39.2397 21.7782C38.9197 22.2062 38.9197 22.7938 39.2397 23.2218L42.8761 28.0851C43.3748 28.7521 43.063 29.7118 42.2675 29.9583L36.467 31.7554C35.9565 31.9136 35.6111 32.3889 35.6184 32.9233L35.7017 38.9952C35.7132 39.828 34.8968 40.4211 34.1083 40.1529L28.3593 38.1974C27.8534 38.0253 27.2945 38.2068 26.9864 38.6435L23.4848 43.6047C23.0046 44.2851 21.9954 44.2851 21.5152 43.6047L18.0136 38.6435C17.7055 38.2068 17.1466 38.0253 16.6407 38.1974L10.8917 40.1529C10.1032 40.4211 9.28683 39.828 9.29826 38.9952L9.38156 32.9233C9.38889 32.3889 9.0435 31.9136 8.53303 31.7554L2.73255 29.9583C1.93704 29.7118 1.6252 28.7521 2.12392 28.0851L5.7603 23.2218C6.08032 22.7938 6.08032 22.2062 5.7603 21.7782L2.12392 16.9149C1.6252 16.2479 1.93704 15.2882 2.73255 15.0417L8.53303 13.2446C9.0435 13.0864 9.38889 12.6111 9.38156 12.0767L9.29826 6.00477C9.28683 5.17204 10.1032 4.5789 10.8917 4.84709L16.6407 6.80265C17.1466 6.97474 17.7055 6.79316 18.0136 6.35655L21.5152 1.39529Z" fill="#2F8647"/>
<path d="M31.0001 16.375L18.6251 28.75L13 23.125" stroke="white" stroke-width="2.91667" stroke-linecap="round" stroke-linejoin="round"/>
</svg>
