<svg width="24" height="24" viewBox="0 0 24 24" fill="none" xmlns="http://www.w3.org/2000/svg">
<path fill-rule="evenodd" clip-rule="evenodd" d="M16.3672 2.30423C16.812 2.22061 17.2698 2.23561 17.7083 2.34822C18.1493 2.46146 18.5598 2.67064 18.9106 2.96082C19.2614 3.25099 19.5439 3.61502 19.7378 4.02693C19.9317 4.43883 20.0324 4.88846 20.0325 5.34373V5.34397V6.04736C21.4353 6.29866 22.5 7.52512 22.5 9.00024V18.0002C22.5 19.6571 21.1569 21.0002 19.5 21.0002H4.5C2.84315 21.0002 1.5 19.6571 1.5 18.0002V9.00024L1.5 8.99843V7.45357V7.45335C1.49963 6.73314 1.75054 6.03537 2.20949 5.48032C2.66854 4.92514 3.30695 4.54756 4.0146 4.4127C4.01933 4.4118 4.02407 4.41094 4.02882 4.41013L16.3672 2.30423ZM18.5325 5.34421V6.00024H4.5C4.24591 6.00024 3.9992 6.03183 3.76358 6.0913C3.92406 5.99337 4.10177 5.92389 4.289 5.88742L16.6262 3.78172C16.6287 3.78129 16.6312 3.78085 16.6337 3.7804C16.6359 3.78 16.6382 3.77958 16.6404 3.77915C16.8708 3.73525 17.108 3.74273 17.3352 3.80107C17.5624 3.85941 17.7738 3.96717 17.9546 4.11665C18.1353 4.26614 18.2808 4.45367 18.3807 4.66586C18.4806 4.87798 18.5324 5.10952 18.5325 5.34397V5.34421ZM3 18.0002L3 9.75022V8.99876C3.0008 8.17102 3.67207 7.50024 4.5 7.50024H19.5C20.3284 7.50024 21 8.17182 21 9.00024V18.0002C21 18.8287 20.3284 19.5002 19.5 19.5002H4.5C3.67157 19.5002 3 18.8287 3 18.0002ZM16.4166 14.7474C16.6633 14.9123 16.9533 15.0002 17.25 15.0002C17.6478 15.0002 18.0294 14.8422 18.3107 14.5609C18.592 14.2796 18.75 13.8981 18.75 13.5002C18.75 13.2036 18.662 12.9136 18.4972 12.6669C18.3324 12.4202 18.0981 12.228 17.824 12.1144C17.5499 12.0009 17.2483 11.9712 16.9574 12.0291C16.6664 12.0869 16.3991 12.2298 16.1893 12.4396C15.9796 12.6494 15.8367 12.9166 15.7788 13.2076C15.7209 13.4986 15.7506 13.8002 15.8642 14.0743C15.9777 14.3484 16.17 14.5826 16.4166 14.7474Z" fill="#373737"/>
</svg>
