<svg width="32" height="32" viewBox="0 0 32 32" fill="none" xmlns="http://www.w3.org/2000/svg">
<rect x="0.5" y="0.5" width="31" height="31" rx="15.5" fill="white" stroke="#E4E6ED"/>
<path d="M23.4443 15.9863H19.8721C19.3788 15.9863 18.979 16.3862 18.979 16.8794V23.4285C18.979 23.9217 19.3788 24.3215 19.8721 24.3215H23.4443C23.9375 24.3215 24.3373 23.9217 24.3373 23.4285V16.8794C24.3373 16.3862 23.9375 15.9863 23.4443 15.9863Z" fill="#BEC0C7"/>
<path d="M16.9544 12.1046L13.0845 7.93695C12.9104 7.76389 12.675 7.66675 12.4296 7.66675C12.1841 7.66675 11.9487 7.76389 11.7746 7.93695L7.90473 12.1046C7.75262 12.2703 7.66771 12.4868 7.66658 12.7118V23.4285C7.66501 23.5468 7.68694 23.6642 7.73111 23.7739C7.77529 23.8837 7.84082 23.9835 7.92391 24.0677C8.00699 24.1519 8.10598 24.2188 8.21511 24.2644C8.32424 24.31 8.44135 24.3335 8.55964 24.3335H10.0481C10.2849 24.3335 10.5121 24.2394 10.6796 24.0719C10.847 23.9044 10.9411 23.6773 10.9411 23.4404V21.952C10.9411 21.5572 11.0979 21.1787 11.3771 20.8995C11.6562 20.6204 12.0348 20.4636 12.4296 20.4636C12.8243 20.4636 13.2029 20.6204 13.482 20.8995C13.7612 21.1787 13.918 21.5572 13.918 21.952V23.4404C13.918 23.6773 14.0121 23.9044 14.1796 24.0719C14.347 24.2394 14.5742 24.3335 14.811 24.3335H16.2995C16.4178 24.3335 16.5349 24.31 16.644 24.2644C16.7531 24.2188 16.8521 24.1519 16.9352 24.0677C17.0183 23.9835 17.0838 23.8837 17.128 23.7739C17.1722 23.6642 17.1941 23.5468 17.1925 23.4285V12.7118C17.1914 12.4868 17.1065 12.2703 16.9544 12.1046ZM11.5365 17.7725C11.5365 17.9304 11.4738 18.0818 11.3621 18.1935C11.2505 18.3051 11.099 18.3679 10.9411 18.3679H10.0481C9.89017 18.3679 9.73873 18.3051 9.62708 18.1935C9.51543 18.0818 9.4527 17.9304 9.4527 17.7725V17.189C9.4527 17.0311 9.51543 16.8797 9.62708 16.768C9.73873 16.6564 9.89017 16.5937 10.0481 16.5937H10.9411C11.099 16.5937 11.2505 16.6564 11.3621 16.768C11.4738 16.8797 11.5365 17.0311 11.5365 17.189V17.7725ZM11.5365 14.2003C11.5365 14.3582 11.4738 14.5096 11.3621 14.6213C11.2505 14.7329 11.099 14.7956 10.9411 14.7956H10.0481C9.89017 14.7956 9.73873 14.7329 9.62708 14.6213C9.51543 14.5096 9.4527 14.3582 9.4527 14.2003V13.6168C9.4527 13.4589 9.51543 13.3075 9.62708 13.1958C9.73873 13.0841 9.89017 13.0214 10.0481 13.0214H10.9411C11.099 13.0214 11.2505 13.0841 11.3621 13.1958C11.4738 13.3075 11.5365 13.4589 11.5365 13.6168V14.2003ZM15.4064 17.7725C15.408 17.8517 15.3938 17.9304 15.3646 18.004C15.3354 18.0776 15.2917 18.1446 15.2363 18.2012C15.1809 18.2578 15.1147 18.3027 15.0417 18.3333C14.9686 18.364 14.8902 18.3798 14.811 18.3798H13.918C13.7601 18.3798 13.6086 18.317 13.497 18.2054C13.3853 18.0937 13.3226 17.9423 13.3226 17.7844V17.189C13.3226 17.0311 13.3853 16.8797 13.497 16.768C13.6086 16.6564 13.7601 16.5937 13.918 16.5937H14.811C14.9689 16.5937 15.1204 16.6564 15.232 16.768C15.3437 16.8797 15.4064 17.0311 15.4064 17.189V17.7725ZM15.4064 14.2003C15.408 14.2794 15.3938 14.3581 15.3646 14.4318C15.3354 14.5054 15.2917 14.5724 15.2363 14.629C15.1809 14.6855 15.1147 14.7304 15.0417 14.7611C14.9686 14.7918 14.8902 14.8076 14.811 14.8075H13.918C13.7601 14.8075 13.6086 14.7448 13.497 14.6332C13.3853 14.5215 13.3226 14.3701 13.3226 14.2122V13.6168C13.3226 13.4589 13.3853 13.3075 13.497 13.1958C13.6086 13.0841 13.7601 13.0214 13.918 13.0214H14.811C14.9689 13.0214 15.1204 13.0841 15.232 13.1958C15.3437 13.3075 15.4064 13.4589 15.4064 13.6168V14.2003Z" fill="#BEC0C7"/>
</svg>
