<svg width="25" height="25" viewBox="0 0 25 25" fill="none" xmlns="http://www.w3.org/2000/svg">
<path d="M3.35073 24.1028L22.2774 24.1028C23.2277 24.1028 23.998 23.3325 23.998 22.3822L23.998 3.45551C23.998 2.50524 23.2277 1.7349 22.2774 1.7349L3.35073 1.7349C2.40046 1.7349 1.63012 2.50524 1.63012 3.45551L1.63012 22.3822C1.63012 23.3325 2.40046 24.1028 3.35073 24.1028Z" stroke="#BEC0C7" stroke-width="1.75124" stroke-linecap="round" stroke-linejoin="round"/>
<path d="M16.6673 12.0587C18.3303 12.0587 19.6784 10.7106 19.6784 9.04766C19.6784 7.3847 18.3303 6.03659 16.6673 6.03659C15.0044 6.03659 13.6562 7.3847 13.6562 9.04766C13.6562 10.7106 15.0044 12.0587 16.6673 12.0587Z" stroke="#BEC0C7" stroke-width="1.75124" stroke-linecap="round" stroke-linejoin="round"/>
<path d="M16.9267 24.1027C16.3727 21.1519 14.7882 18.4938 12.4561 16.6029C10.124 14.712 7.19584 13.7112 4.1942 13.7791C3.32817 13.7767 2.46392 13.8574 1.61328 14.0199" stroke="#BEC0C7" stroke-width="1.75124" stroke-linecap="round" stroke-linejoin="round"/>
<path d="M23.982 17.926C22.5961 17.458 21.1431 17.2197 19.6804 17.2205C17.829 17.2165 15.9962 17.5913 14.2949 18.3217" stroke="#BEC0C7" stroke-width="1.75124" stroke-linecap="round" stroke-linejoin="round"/>
</svg>
