<svg width="24" height="24" viewBox="0 0 24 24" fill="none" xmlns="http://www.w3.org/2000/svg">
<rect x="0.375" y="0.375" width="23.25" height="23.25" rx="11.625" fill="white" stroke="#E4E6ED" stroke-width="0.75"/>
<path d="M11.9997 11.826C13.7236 11.826 15.121 10.4285 15.121 8.70468C15.121 6.98083 13.7236 5.58337 11.9997 5.58337C10.2759 5.58337 8.87842 6.98083 8.87842 8.70468C8.87842 10.4285 10.2759 11.826 11.9997 11.826Z" fill="#BEC0C7"/>
<path d="M17.6005 17.4711C17.1914 16.3126 16.4331 15.3094 15.4301 14.5999C14.427 13.8903 13.2286 13.5093 12 13.5093C10.7714 13.5093 9.57295 13.8903 8.56991 14.5999C7.56687 15.3094 6.80856 16.3126 6.39948 17.4711C6.37671 17.5391 6.3697 17.6113 6.37897 17.6824C6.38824 17.7535 6.41355 17.8215 6.45299 17.8814C6.49546 17.9386 6.55053 17.9852 6.61394 18.0177C6.67735 18.0502 6.74739 18.0676 6.81863 18.0686H17.1814C17.2526 18.0676 17.3226 18.0502 17.3861 18.0177C17.4495 17.9852 17.5045 17.9386 17.547 17.8814C17.5864 17.8215 17.6118 17.7535 17.621 17.6824C17.6303 17.6113 17.6233 17.5391 17.6005 17.4711Z" fill="#BEC0C7"/>
</svg>
