<svg height="24" viewBox="0 0 24 24" width="24" xmlns="http://www.w3.org/2000/svg"><path d="m4.31351102 11.9651322-.81942757-1.99675044-.81474426 1.99675044zm7.85949478 2.1612704-.0045322-3.922798-1.735996 3.922798h-1.05117571l-1.7405282-3.9262727v3.9262727h-2.43501724l-.46002156-1.1171952h-2.49272766l-.46470487 1.1171952h-1.30029739l2.14389686-5.00872081h1.77875003l2.03618081 4.74222551v-4.74222551h1.95399634l1.56679264 3.39781441 1.43928585-3.39781441h1.9932757v5.00872081zm3.1325674-1.0248977v-.9967889h2.6283925v-1.0221694h-2.6283925v-.9108276h3.0015462l1.309513 1.4599831-1.3675255 1.4698028zm8.1115336 1.0440752h-1.5556599l-1.474184-1.6584948-1.5320455 1.6584948h-4.7422256v-5.00992933h4.8151945l1.4729754 1.64217873 1.52283-1.64217873h1.5640133l-2.3266422 2.50496473z" fill="#002663" fill-rule="evenodd"/></svg>